# xmcd
#
# Track frame offsets:
#	182
#	10842
#	23355
#	33245
#	44822
#	57845
#	69155
#	78672
#	91427
#	101172
#	118987
#	133857
#	146840
#	155195
#	166680
#	176562
#
# Disc length: 2482 seconds
#
# Revision: 2
# Processed by: cddbd v1.5.1PL0 Copyright (c) Steve Scherf et al.
# Submitted via: audiograbber 1.83.01
#
DISCID=db09b010
DTITLE=Various Artist - 16 All-Time Country Greats 9
DYEAR=1900
DGENRE=Country
TTITLE0=Roger Miller - King of the road
TTITLE1=Bob Luman - The great snowman
TTITLE2=Johnny Cash - Rock island line
TTITLE3=Gene Autry - Vaya con dios
TTITLE4=Les Paul and Mary Ford - I'm a fool to care
TTITLE5=Frankie Lane - Answer me
TTITLE6=Carl Perkins - This ole house
TTITLE7=Patsy Cline - I fall to pieces
TTITLE8=Hank Williams - Honky tonk blues
TTITLE9=David Huston - Nashville
TTITLE10=Boxcar Willie - Train medley
TTITLE11=Jim Reeves - Four walls
TTITLE12=Frankie Miller - Family man
TTITLE13=George JOnes - White lightning
TTITLE14=Dave Dudley - Six days on the road
TTITLE15=Slim Whitman - Cattle call
EXTD=
EXTT0=
EXTT1=
EXTT2=
EXTT3=
EXTT4=
EXTT5=
EXTT6=
EXTT7=
EXTT8=
EXTT9=
EXTT10=
EXTT11=
EXTT12=
EXTT13=
EXTT14=
EXTT15=
PLAYORDER=
